<svg width="18" height="16" viewBox="0 0 18 16" fill="none" xmlns="http://www.w3.org/2000/svg">
<path d="M5.04264 12.7597C3.90269 12.7597 2.88869 12.0298 2.52048 10.9432L2.49558 10.8613C2.40874 10.5736 2.37236 10.3316 2.37236 10.0894V5.23444L0.644893 11.0008C0.422717 11.849 0.929002 12.7283 1.77846 12.9626L12.7893 15.9114C12.9268 15.947 13.0642 15.9641 13.1995 15.9641C13.9087 15.9641 14.5567 15.4934 14.7383 14.7997L15.3798 12.7597H5.04264Z" fill="#00CFFE"/>
<path d="M7.00062 5.28261C7.78606 5.28261 8.42469 4.64385 8.42469 3.85841C8.42469 3.07297 7.78606 2.43422 7.00062 2.43422C6.21519 2.43422 5.57643 3.07297 5.57643 3.85841C5.57643 4.64385 6.21519 5.28261 7.00062 5.28261Z" fill="#00CFFE"/>
<path d="M15.9015 0.298157H5.2204C4.23926 0.298157 3.44026 1.09716 3.44026 2.07843V9.91117C3.44026 10.8924 4.23926 11.6914 5.2204 11.6914H15.9015C16.8828 11.6914 17.6818 10.8924 17.6818 9.91117V2.07843C17.6818 1.09716 16.8828 0.298157 15.9015 0.298157ZM5.2204 1.72235H15.9015C16.0982 1.72235 16.2576 1.88181 16.2576 2.07843V7.13345L14.0082 4.50868C13.7696 4.22887 13.4242 4.07932 13.0533 4.07084C12.6844 4.07293 12.3384 4.23669 12.102 4.52015L9.45726 7.6945L8.59568 6.835C8.10869 6.34801 7.31608 6.34801 6.82975 6.835L4.86445 8.79964V2.07843C4.86445 1.88181 5.02391 1.72235 5.2204 1.72235Z" fill="#00CFFE"/>
</svg>
