<svg width="14" height="16" viewBox="0 0 14 16" fill="none" xmlns="http://www.w3.org/2000/svg">
<path d="M3.6758 10.4018C3.6758 10.1479 3.49959 9.99646 3.18871 9.99646C3.06176 9.99646 2.97578 10.009 2.93081 10.021V10.8357C2.98406 10.8477 3.04952 10.8517 3.13974 10.8517C3.47112 10.8517 3.6758 10.6843 3.6758 10.4018Z" fill="#3246D3"/>
<path d="M5.60061 10.0048C5.46138 10.0048 5.37141 10.0168 5.3182 10.0293V11.8337C5.37144 11.8462 5.45742 11.8462 5.53515 11.8462C6.09994 11.8502 6.4683 11.5393 6.4683 10.8805C6.47229 10.3077 6.13663 10.0048 5.60061 10.0048Z" fill="#3246D3"/>
<path d="M9.17561 0.564255H3.03433C2.13714 0.564255 1.40693 1.29497 1.40693 2.19165V8.20947H1.24798C0.885876 8.20947 0.592206 8.50285 0.592206 8.86528V12.8423C0.592206 13.2047 0.885844 13.4981 1.24798 13.4981H1.40693V14.2273C1.40693 15.125 2.13714 15.8547 3.03433 15.8547H11.4138C12.3105 15.8547 13.0408 15.1249 13.0408 14.2273V4.41586L9.17561 0.564255ZM2.31258 9.58299C2.50477 9.55052 2.77491 9.52603 3.15551 9.52603C3.54013 9.52603 3.81426 9.59945 3.99846 9.74692C4.17441 9.88589 4.29314 10.1153 4.29314 10.3852C4.29314 10.6551 4.20317 10.8846 4.03946 11.04C3.82654 11.2404 3.51165 11.3304 3.1433 11.3304C3.06132 11.3304 2.98783 11.3263 2.93037 11.3184V12.3045H2.31258V9.58299ZM11.4138 14.8581H3.03433C2.68693 14.8581 2.40405 14.5752 2.40405 14.2273V13.4981H10.2155C10.5776 13.4981 10.8713 13.2047 10.8713 12.8423V8.86528C10.8713 8.50285 10.5776 8.20947 10.2155 8.20947H2.40405V2.19165C2.40405 1.84476 2.68697 1.56188 3.03433 1.56188L8.80275 1.55585V3.68806C8.80275 4.31086 9.30808 4.81666 9.93135 4.81666L12.0201 4.81067L12.0436 14.2273C12.0436 14.5752 11.7612 14.8581 11.4138 14.8581ZM4.6915 12.292V9.58299C4.92063 9.54652 5.21928 9.52603 5.53445 9.52603C6.05824 9.52603 6.39789 9.62 6.66403 9.8204C6.95044 10.0333 7.13035 10.3727 7.13035 10.86C7.13035 11.3878 6.93817 11.7522 6.67199 11.9771C6.38159 12.2185 5.93953 12.333 5.39948 12.333C5.07606 12.333 4.84693 12.3125 4.6915 12.292ZM9.15766 10.6881V11.1954H8.16724V12.3045H7.54121V9.54652H9.22711V10.0578H8.16724V10.6881H9.15766Z" fill="#3246D3"/>
</svg>
