<svg width="300" height="300" viewBox="0 0 300 300" fill="none" xmlns="http://www.w3.org/2000/svg">
<path opacity="0.3" fill-rule="evenodd" clip-rule="evenodd" d="M37.5 261C37.5 261.828 38.1716 262.5 39 262.5H286C286.828 262.5 287.5 261.828 287.5 261V89C287.5 88.1715 286.828 87.5 286 87.5H137.5L100.439 50.4393C100.158 50.158 99.7765 50 99.3787 50H39C38.1716 50 37.5 50.6715 37.5 51.5V261Z" fill="#3734A9"/>
<path fill-rule="evenodd" clip-rule="evenodd" d="M12.5002 236C12.5002 236.828 13.1718 237.5 14.0002 237.5H261C261.829 237.5 262.5 236.828 262.5 236V64C262.5 63.1716 261.829 62.5 261 62.5H112.5L75.4396 25.4394C75.1583 25.1581 74.7767 25 74.3789 25H14.0002C13.1718 25 12.5002 25.6716 12.5002 26.5V236Z" fill="#3734A9"/>
</svg>
