<svg width="17" height="22" viewBox="0 0 17 22" fill="none" xmlns="http://www.w3.org/2000/svg">
<path d="M16.3898 5.31036V20.0692C16.3898 21.1355 15.5255 22 14.459 22H1.93083C0.864538 22 0 21.1355 0 20.0692V12.0343H7.70731V4.29177H0V1.93083C0 0.864538 0.864538 0 1.93083 0H11.235L11.2833 0.0497793L11.235 0.0965417V4.34494C11.2348 4.87818 11.6672 5.31036 12.2005 5.31036H16.2933L16.3431 5.26209L16.3898 5.31036Z" fill="#3E7BF0"/>
<path d="M16.3427 5.2621L16.2929 5.31037H12.2C11.6668 5.31037 11.2344 4.87819 11.2346 4.34495V0.0965518L11.2829 0.0497894L16.3427 5.2621Z" fill="#5E90F3"/>
<path d="M7.24712 4.84V11.44H0.207123V4.84H7.24712Z" fill="#3E7BF0"/>
<path d="M7.55276 15.0952H2.56239C2.29596 15.0952 2.07968 14.8791 2.07968 14.6125C2.07968 14.3459 2.29596 14.1298 2.56239 14.1298H7.55276C7.81939 14.1298 8.03547 14.3459 8.03547 14.6125C8.03547 14.8791 7.81939 15.0952 7.55276 15.0952Z" fill="white"/>
<path d="M13.8276 17.173H2.56199C2.29556 17.173 2.07928 16.9567 2.07928 16.6903C2.07928 16.4237 2.29556 16.2076 2.56199 16.2076H13.8276C14.0942 16.2076 14.3103 16.4237 14.3103 16.6903C14.3103 16.9567 14.0942 17.173 13.8276 17.173Z" fill="white"/>
<path d="M13.8276 19.2505H2.56199C2.29556 19.2505 2.07928 19.0344 2.07928 18.7678C2.07928 18.5012 2.29556 18.2851 2.56199 18.2851H13.8276C14.0942 18.2851 14.3103 18.5012 14.3103 18.7678C14.3103 19.0344 14.0942 19.2505 13.8276 19.2505Z" fill="white"/>
</svg>
