<svg width="22" height="22" viewBox="0 0 22 22" fill="none" xmlns="http://www.w3.org/2000/svg">
<rect width="22" height="22" rx="5" fill="#6A4BFF"/>
<path d="M5.9999 10C6.55221 9.99993 6.99993 10.4477 7 11C7 11.5523 6.55228 12 5.99997 12C5.44766 12 4.99993 11.5522 5 10.9999C5 10.4477 5.44766 10 5.9999 10Z" fill="white"/>
<path d="M10.9999 10C11.5522 9.99993 11.9999 10.4477 12 11C12 11.5523 11.5523 12 11 12C10.4477 12 9.99993 11.5522 10 10.9999C10 10.4477 10.4477 10 10.9999 10Z" fill="white"/>
<path d="M15.9999 10C16.5522 9.99993 16.9999 10.4477 17 11C17 11.5523 16.5523 12 16 12C15.4477 12 14.9999 11.5522 15 10.9999C15 10.4477 15.4477 10 15.9999 10Z" fill="white"/>
</svg>
